<svg width="13" height="12" viewBox="0 0 13 12" fill="none" xmlns="http://www.w3.org/2000/svg">
    <path d="M1.44473 0.64644L1.09117 0.292893L0.38408 1.00001L0.737639 1.35356L1.44473 0.64644ZM6.18244 6.09109L6.53599 6.44464L6.88956 6.09109L6.53599 5.73753L6.18244 6.09109ZM0.737639 10.8286L0.38408 11.1822L1.09117 11.8893L1.44473 11.5357L0.737639 10.8286ZM11.8419 1.26249L12.1955 0.908947L11.4884 0.201829L11.1348 0.555376L11.8419 1.26249ZM6.39713 6.00002L6.04358 5.64646L5.69001 6.00002L6.04358 6.35358L6.39713 6.00002ZM11.1348 11.4447L11.4884 11.7982L12.1955 11.0911L11.8419 10.7375L11.1348 11.4447ZM0.737639 1.35356L5.82889 6.44464L6.53599 5.73753L1.44473 0.64644L0.737639 1.35356ZM5.82889 5.73753L0.737639 10.8286L1.44473 11.5357L6.53599 6.44464L5.82889 5.73753ZM11.1348 0.555376L6.04358 5.64646L6.75068 6.35358L11.8419 1.26249L11.1348 0.555376ZM6.04358 6.35358L11.1348 11.4447L11.8419 10.7375L6.75068 5.64646L6.04358 6.35358Z" fill="black"/>
</svg>
