<svg xmlns="http://www.w3.org/2000/svg" xmlns:xlink="http://www.w3.org/1999/xlink" version="1.1" id="Layer_1" x="0px" y="0px" viewBox="0 0 646 181" style="enable-background:new 0 0 646 181;" xml:space="preserve">
    <path d="M131.0177917,97.6930237h19.184906v63.6639099H102.492424l7.7166595-28.3230743H0V2.0160782h47.7102776v95.6769485  h35.5972328V2.0160782h47.7102814V97.6930237z M405.3881836,37.1680298l24.7617798-35.1519508h-50.9927368  c-20.9187622,31.5962715-33.5250854,48.7870445-36.603302,60.017807V2.0160782h-47.7102966V67.524971v65.5088882h47.7102966  v-60.017807c3.0782166,11.2307663,15.6845398,28.4212952,36.603302,60.017807h50.9927368l-24.7617798-35.151947  c-17.509552-24.8565979-29.6411133-30.3569412-29.6411133-30.3569412S387.8786316,62.0246277,405.3881836,37.1680298z   M222.6489258,97.6930237L191.094574,2.0160782h-47.9627686c25.2570343,78.3818665,42.6905518,131.0177765,62.4067841,131.0177765  c0,0-7.3623962,12.3694458-31.1049347,12.3694458c-2.9607391,0-12.1169434,0-12.1169434,0v35.3408356c0,0,10.0448151,0,17.1659088,0  c51.1799316,0,86.4525299-23.3735352,103.246994-178.7280579h-47.9627686L222.6489258,97.6930237z M586.1757202,63.032177  c0,45.3635368-24.5536499,70.0016785-54.7147827,70.0016785c-18.182373,0-29.8407593-8.6159363-41.4866638-16.077301v63.7875824  h-47.7102966V2.0160782h47.7102966v25.8262272C501.205658,12.505043,514.7589722,0,532.012146,0  C554.9727783,0,586.1757202,16.8568707,586.1757202,63.032177z M538.4654541,67.0531235  c0-40.1258545-36.2234802-20.9795952-48.4911804-8.0141068v21.9578705  C503.2782593,95.919632,538.4654541,106.075386,538.4654541,67.0531235z M598.2897339,85.3235855v47.7102737H646V85.3235855  H598.2897339z"/>
</svg>