<svg xmlns="http://www.w3.org/2000/svg" width="198" height="56" viewBox="0 0 198 56" fill="none">
    <path d="M40 29.8259H45.8572V49.2626H31.2911L33.647 40.6155H0V0.615513H14.566V29.8259H25.4339V0.615513H40V29.8259V29.8259ZM123.766 11.3475L131.326 0.615513H115.757C109.371 10.2619 105.522 15.5103 104.582 18.9391V0.615513H90.0163V20.6155V40.6155H104.582V22.2919C105.522 25.7207 109.371 30.969 115.757 40.6155H131.326L123.766 29.8835C118.42 22.2948 114.716 20.6155 114.716 20.6155C114.716 20.6155 118.42 18.9362 123.766 11.3475ZM67.9751 29.8259L58.3415 0.615513H43.6984C51.4094 24.5456 56.7319 40.6155 62.7513 40.6155C62.7513 40.6155 60.5035 44.3919 53.2549 44.3919C52.351 44.3919 49.5556 44.3919 49.5556 44.3919V55.1815C49.5556 55.1815 52.6223 55.1815 54.7964 55.1815C70.4217 55.1815 81.1905 48.0455 86.3179 0.615513H71.6747L67.9751 29.8259ZM178.96 19.2438C178.96 33.0934 171.464 40.6155 162.256 40.6155C156.705 40.6155 153.146 37.985 149.59 35.707V55.1815H135.024V0.615513H149.59V8.50031C153.019 3.81781 157.157 0 162.424 0C169.434 1e-07 178.96 5.14643 178.96 19.2438ZM164.394 20.4714C164.394 8.22094 153.335 14.0663 149.59 18.0247V24.7285C153.652 29.2844 164.394 32.385 164.394 20.4714ZM182.659 26.0494V40.6155H197.225V26.0494H182.659Z" fill="white"/>
</svg>      